<?xml version="1.0" encoding="UTF-8" standalone="no"?>
<!-- Created with Inkscape (http://www.inkscape.org/) -->

<svg
   xmlns:dc="http://purl.org/dc/elements/1.1/"
   xmlns:cc="http://creativecommons.org/ns#"
   xmlns:rdf="http://www.w3.org/1999/02/22-rdf-syntax-ns#"
   xmlns:svg="http://www.w3.org/2000/svg"
   xmlns="http://www.w3.org/2000/svg"
   xmlns:sodipodi="http://sodipodi.sourceforge.net/DTD/sodipodi-0.dtd"
   xmlns:inkscape="http://www.inkscape.org/namespaces/inkscape"
   width="210mm"
   height="297mm"
   viewBox="0 0 210 297"
   version="1.1"
   id="svg5205"
   inkscape:version="0.91 r13725"
   sodipodi:docname="Anvil03.svg">
  <defs
     id="defs5199" />
  <sodipodi:namedview
     id="base"
     pagecolor="#ffffff"
     bordercolor="#666666"
     borderopacity="1.0"
     inkscape:pageopacity="0.0"
     inkscape:pageshadow="2"
     inkscape:zoom="0.98994949"
     inkscape:cx="125.38951"
     inkscape:cy="572.50264"
     inkscape:document-units="mm"
     inkscape:current-layer="layer1"
     showgrid="false"
     inkscape:window-width="2560"
     inkscape:window-height="1377"
     inkscape:window-x="-8"
     inkscape:window-y="-8"
     inkscape:window-maximized="1" />
  <metadata
     id="metadata5202">
    <rdf:RDF>
      <cc:Work
         rdf:about="">
        <dc:format>image/svg+xml</dc:format>
        <dc:type
           rdf:resource="http://purl.org/dc/dcmitype/StillImage" />
        <dc:title />
      </cc:Work>
    </rdf:RDF>
  </metadata>
  <g
     inkscape:label="Layer 1"
     inkscape:groupmode="layer"
     id="layer1">
    <path
       style="fill:#000000;fill-opacity:1;fill-rule:evenodd;stroke:#000000;stroke-width:0.19129579px;stroke-linecap:butt;stroke-linejoin:miter;stroke-opacity:1"
       d="m 147.18061,242.8574 c 0.96619,0 24.15473,0 24.15473,0 l 0.38649,-13.91313 c -67.27252,-23.07981 -20.07951,-68.86991 35.36254,-70.33861 l 0.77295,-12.36723 -125.604656,-0.38648 -0.579715,9.08219 c 0,0 -80.6373444,-2.07927 -80.0005064,-1.35267 31.3655224,35.78672 61.5500904,30.20393 82.1261244,33.81664 10.700001,3.66313 21.448593,26.45977 -20.483221,40.96645 l 1e-6,13.71989 24.734455,0 c 24.920598,-17.24279 43.849188,-8.87195 59.130808,0.77295 z"
       id="path5775"
       inkscape:connector-curvature="0"
       sodipodi:nodetypes="cccccccsccccc" />
    <path
       style="fill:#000000;fill-opacity:1;fill-rule:evenodd;stroke:#000000;stroke-width:0.19129579px;stroke-linecap:butt;stroke-linejoin:miter;stroke-opacity:1"
       d="m 106.98712,85.754957 c 0.77296,0.386474 17.19817,12.367228 17.19817,12.367228 l 10.04838,-11.594277 63.57528,45.604152 c 4.18903,-3.68597 7.14574,-8.29616 9.27542,-13.52664 L 143.12262,74.353918 150.46566,60.827263 133.07425,48.266796 c -15.47471,15.207652 -20.64424,26.293233 -26.08713,37.488161 z"
       id="path5788"
       inkscape:connector-curvature="0"
       sodipodi:nodetypes="ccccccccc" />
  </g>
</svg>
