<?xml version="1.0" encoding="UTF-8" standalone="no"?>
<!-- Created with Inkscape (http://www.inkscape.org/) -->

<svg
   xmlns:dc="http://purl.org/dc/elements/1.1/"
   xmlns:cc="http://creativecommons.org/ns#"
   xmlns:rdf="http://www.w3.org/1999/02/22-rdf-syntax-ns#"
   xmlns:svg="http://www.w3.org/2000/svg"
   xmlns="http://www.w3.org/2000/svg"
   xmlns:sodipodi="http://sodipodi.sourceforge.net/DTD/sodipodi-0.dtd"
   xmlns:inkscape="http://www.inkscape.org/namespaces/inkscape"
   width="210mm"
   height="297mm"
   viewBox="0 0 744.09448819 1052.3622047"
   id="svg3335"
   version="1.1"
   inkscape:version="0.91 r13725"
   sodipodi:docname="Crown02.svg">
  <defs
     id="defs3337" />
  <sodipodi:namedview
     id="base"
     pagecolor="#ffffff"
     bordercolor="#666666"
     borderopacity="1.0"
     inkscape:pageopacity="0.0"
     inkscape:pageshadow="2"
     inkscape:zoom="0.98994949"
     inkscape:cx="252.5661"
     inkscape:cy="578.98055"
     inkscape:document-units="px"
     inkscape:current-layer="layer1"
     showgrid="false"
     inkscape:window-width="2560"
     inkscape:window-height="1377"
     inkscape:window-x="-8"
     inkscape:window-y="-8"
     inkscape:window-maximized="1" />
  <metadata
     id="metadata3340">
    <rdf:RDF>
      <cc:Work
         rdf:about="">
        <dc:format>image/svg+xml</dc:format>
        <dc:type
           rdf:resource="http://purl.org/dc/dcmitype/StillImage" />
        <dc:title></dc:title>
      </cc:Work>
    </rdf:RDF>
  </metadata>
  <g
     inkscape:label="Layer 1"
     inkscape:groupmode="layer"
     id="layer1">
    <path
       style="fill:#000000;fill-opacity:1;fill-rule:evenodd;stroke:none;stroke-width:1.35925257px;stroke-linecap:butt;stroke-linejoin:miter;stroke-opacity:1"
       d="M 2.4754809,400.57228 3.7930143,734.82465 C 250.49652,767.06213 499.4811,766.86351 742.52316,736.85647 l 0.0552,-329.50865 -28.11998,182.76018 -29.43783,-0.18216 -46.82178,-200.36557 -42.50942,198.21338 -49.3747,-2 -25.42468,-82.02923 -25.43345,79.93768 -54.9221,-4.09156 -60.41431,-232.45691 -57.6682,233.13905 -57.66821,2.03637 -28.74255,-81.31074 -23.43345,85.34709 -49.37469,1.37305 L 119.24013,381.34956 75.164452,588.798 42.404397,589.45254 Z"
       id="path4180"
       inkscape:connector-curvature="0"
       sodipodi:nodetypes="cccccccccccccccccccccc" />
    <path
       style="fill:#000000;fill-opacity:1;fill-rule:evenodd;stroke:none;stroke-width:1px;stroke-linecap:butt;stroke-linejoin:miter;stroke-opacity:1"
       d="m 378.34529,288.38741 c -18.8131,0.47998 -10.91209,86.5581 -25.11946,86.23811 -79.30529,4.63153 -11.64017,30.26636 11.99975,41.11909 9.3622,3.90892 16.48339,3.854 24.95945,0 30.26636,-12.80703 94.31132,-35.5065 19.19958,-41.59909 -13.36178,0.64702 -9.37461,-85.37819 -31.03932,-85.75811 z"
       id="path4193"
       inkscape:connector-curvature="0"
       sodipodi:nodetypes="cccccc" />
    <path
       style="fill:#000000;fill-opacity:1;fill-rule:evenodd;stroke:none;stroke-width:1px;stroke-linecap:butt;stroke-linejoin:miter;stroke-opacity:1"
       d="m 117.55287,344.35923 c -12.04302,0.30725 -6.98526,55.40931 -16.07997,55.20447 -50.766498,2.96483 -7.451335,19.37472 7.68152,26.32198 5.99312,2.50226 10.55168,2.4671 15.97755,0 19.37471,-8.19829 60.37246,-22.72913 12.29042,-26.62925 -8.55341,0.41419 -6.00106,-54.654 -19.86952,-54.8972 z"
       id="path4193-4"
       inkscape:connector-curvature="0"
       sodipodi:nodetypes="cccccc" />
    <path
       style="fill:#000000;fill-opacity:1;fill-rule:evenodd;stroke:none;stroke-width:1px;stroke-linecap:butt;stroke-linejoin:miter;stroke-opacity:1"
       d="m 636.2459,343.96653 c -12.04302,0.30725 -6.98526,55.40931 -16.07997,55.20447 -50.7665,2.96483 -7.45134,19.37472 7.68152,26.32198 5.99312,2.50226 10.55168,2.4671 15.97755,0 19.37471,-8.19829 60.37246,-22.72913 12.29042,-26.62925 -8.55341,0.41419 -6.00106,-54.654 -19.86952,-54.8972 z"
       id="path4193-4-5"
       inkscape:connector-curvature="0"
       sodipodi:nodetypes="cccccc" />
  </g>
</svg>
