<?xml version="1.0" encoding="UTF-8" standalone="no"?>
<!-- Created with Inkscape (http://www.inkscape.org/) -->

<svg
   xmlns:dc="http://purl.org/dc/elements/1.1/"
   xmlns:cc="http://creativecommons.org/ns#"
   xmlns:rdf="http://www.w3.org/1999/02/22-rdf-syntax-ns#"
   xmlns:svg="http://www.w3.org/2000/svg"
   xmlns="http://www.w3.org/2000/svg"
   xmlns:sodipodi="http://sodipodi.sourceforge.net/DTD/sodipodi-0.dtd"
   xmlns:inkscape="http://www.inkscape.org/namespaces/inkscape"
   width="210mm"
   height="297mm"
   viewBox="0 0 210 297"
   version="1.1"
   id="svg4625"
   inkscape:version="0.91 r13725"
   sodipodi:docname="Pick03.svg">
  <defs
     id="defs4619" />
  <sodipodi:namedview
     id="base"
     pagecolor="#ffffff"
     bordercolor="#666666"
     borderopacity="1.0"
     inkscape:pageopacity="0.0"
     inkscape:pageshadow="2"
     inkscape:zoom="0.70000001"
     inkscape:cx="278.64295"
     inkscape:cy="377.54272"
     inkscape:document-units="mm"
     inkscape:current-layer="layer1"
     showgrid="false"
     inkscape:window-width="2560"
     inkscape:window-height="1377"
     inkscape:window-x="-8"
     inkscape:window-y="-8"
     inkscape:window-maximized="1" />
  <metadata
     id="metadata4622">
    <rdf:RDF>
      <cc:Work
         rdf:about="">
        <dc:format>image/svg+xml</dc:format>
        <dc:type
           rdf:resource="http://purl.org/dc/dcmitype/StillImage" />
        <dc:title />
      </cc:Work>
    </rdf:RDF>
  </metadata>
  <g
     inkscape:label="Layer 1"
     inkscape:groupmode="layer"
     id="layer1">
    <path
       style="fill:#000000;fill-opacity:1;fill-rule:evenodd;stroke:#000000;stroke-width:0.5155232;stroke-linecap:butt;stroke-linejoin:miter;stroke-miterlimit:4;stroke-dasharray:none;stroke-opacity:1"
       d="M 27.89257,49.067748 C 165.08099,66.767291 158.6601,179.69685 164.85831,189.92318 165.07226,194.08833 193.55091,38.34394 27.89257,49.067748 Z"
       id="path4633"
       inkscape:connector-curvature="0"
       sodipodi:nodetypes="ccc" />
    <path
       style="fill:#000000;fill-opacity:1;fill-rule:evenodd;stroke:#000000;stroke-width:0.6819942px;stroke-linecap:butt;stroke-linejoin:miter;stroke-opacity:1"
       d="m 1.0107107,187.55294 c 0.1836296,5.83292 2.1579547,10.32282 9.6448573,10.67827 L 133.62745,95.58236 122.26032,86.281967 Z"
       id="path6372"
       inkscape:connector-curvature="0"
       sodipodi:nodetypes="ccccc" />
    <path
       style="fill:#000000;fill-opacity:1;fill-rule:evenodd;stroke:#000000;stroke-width:0.26195532px;stroke-linecap:butt;stroke-linejoin:miter;stroke-opacity:1"
       d="m 147.95905,209.16014 c -5.26651,3.45496 -7.33312,5.82684 -7.94214,10.74717 1.68145,6.69988 7.52585,8.8024 13.93624,10.27987 8.64591,0.62998 17.22849,-4.44601 18.13208,-10.27987 -0.93594,-5.42105 -1.72757,-7.4092 -7.19289,-10.86398 -3.99651,-2.52633 -10.76299,-1.38032 -16.93329,0.1167 z"
       id="path6374-6-5"
       inkscape:connector-curvature="0"
       sodipodi:nodetypes="ccccsc" />
    <path
       style="fill:#000000;fill-opacity:1;fill-rule:evenodd;stroke:#000000;stroke-width:0.26195532px;stroke-linecap:butt;stroke-linejoin:miter;stroke-opacity:1"
       d="m 120.71315,226.38594 c -5.26651,3.45496 -7.33311,5.82682 -7.94214,10.74716 1.68145,6.6999 7.52585,8.8024 13.93623,10.27986 8.64592,0.63 17.22851,-4.44599 18.1321,-10.27986 -0.93594,-5.42103 -1.72757,-7.4092 -7.19289,-10.86398 -3.99652,-2.52632 -10.76301,-1.38031 -16.9333,0.1167 z"
       id="path6374-6-4"
       inkscape:connector-curvature="0"
       sodipodi:nodetypes="ccccsc" />
    <path
       style="fill:#000000;fill-opacity:1;fill-rule:evenodd;stroke:#000000;stroke-width:0.26195532px;stroke-linecap:butt;stroke-linejoin:miter;stroke-opacity:1"
       d="m 169.97081,227.07485 c -5.26651,3.45496 -7.33312,5.82683 -7.94216,10.74717 1.68147,6.69989 7.52587,8.8024 13.93624,10.27986 8.64592,0.63 17.22851,-4.44599 18.1321,-10.27986 -0.93594,-5.42104 -1.72757,-7.40921 -7.19289,-10.86399 -3.99653,-2.52631 -10.76299,-1.3803 -16.93329,0.11671 z"
       id="path6374-6-58"
       inkscape:connector-curvature="0"
       sodipodi:nodetypes="ccccsc" />
    <path
       style="fill:#000000;fill-opacity:1;fill-rule:evenodd;stroke:#000000;stroke-width:0.26195532px;stroke-linecap:butt;stroke-linejoin:miter;stroke-opacity:1"
       d="m 185.88318,201.23758 c -5.26651,3.45496 -7.33312,5.82683 -7.94215,10.74716 1.68145,6.6999 7.52586,8.8024 13.93624,10.27987 8.64591,0.63 17.2285,-4.446 18.13208,-10.27987 -0.93593,-5.42103 -1.72757,-7.4092 -7.19288,-10.86398 -3.99652,-2.52632 -10.76299,-1.38031 -16.93329,0.11671 z"
       id="path6374-6-9"
       inkscape:connector-curvature="0"
       sodipodi:nodetypes="ccccsc" />
  </g>
</svg>
